<?xml version="1.0" encoding="UTF-8"?>
<svg width="16px" height="144px" viewBox="0 0 16 144" version="1.1" xmlns="http://www.w3.org/2000/svg" xmlns:xlink="http://www.w3.org/1999/xlink">
    <!-- Generator: Sketch 48.2 (47327) - http://www.bohemiancoding.com/sketch -->
    <title>YETR</title>
    <desc>Created with Sketch.</desc>
    <defs></defs>
    <g id="Page-1" stroke="none" stroke-width="1" fill="none" fill-rule="evenodd">
        <path d="M-63.3330078,64.8427734 L-59.4980469,64.8427734 L-55.8457031,70.5146484 L-52.1503906,64.8427734 L-48.3261719,64.8427734 L-54.2021484,73.1787109 L-54.2021484,80 L-57.4785156,80 L-57.4785156,73.1357422 L-63.3330078,64.8427734 Z M-16.8674603,80 L-16.8674603,64.8427734 L-7.27468681,64.8427734 L-7.27468681,67.6787109 L-13.6555462,67.6787109 L-13.6555462,71.1376953 L-8.06960869,71.1376953 L-8.06960869,73.9306641 L-13.6555462,73.9306641 L-13.6555462,77.1640625 L-7.08132744,77.1640625 L-7.08132744,80 L-16.8674603,80 Z M24.6566811,67.7431641 L24.6566811,64.8427734 L36.0971107,64.8427734 L36.0971107,67.7431641 L32.0043373,67.7431641 L32.0043373,80 L28.7494545,80 L28.7494545,67.7431641 L24.6566811,67.7431641 Z M68.5226192,80 L68.5226192,64.8427734 L74.7208614,64.8427734 C75.5444333,64.8427734 76.2856368,64.9842108 76.9444942,65.2670898 C77.6033517,65.5499689 78.1332943,65.9295224 78.534338,66.4057617 C78.9353817,66.8820011 79.2397406,67.4101533 79.4474239,67.9902344 C79.6551073,68.5703154 79.7589474,69.1790333 79.7589474,69.8164062 C79.7589474,70.9694068 79.436685,71.9952755 78.7921505,72.894043 C78.147616,73.7928105 77.2094744,74.3710925 75.9776974,74.6289062 L79.737463,80 L75.8702755,80 L72.4864864,74.7685547 L71.7560177,74.7685547 L71.7560177,80 L68.5226192,80 Z M71.7560177,71.9433594 L74.4845333,71.9433594 C75.0717758,71.9433594 75.537266,71.7249371 75.8810177,71.2880859 C76.2247694,70.8512348 76.3966427,70.3606798 76.3966427,69.8164062 C76.3966427,69.2864557 76.2337211,68.797691 75.9078732,68.3500977 C75.5820252,67.9025043 75.1362288,67.6787109 74.5704708,67.6787109 L71.7560177,67.6787109 L71.7560177,71.9433594 Z" id="YETR" fill="#000000" transform="translate(8.212970, 72.421387) scale(-1, -1) rotate(90.000000) translate(-8.212970, -72.421387) "></path>
    </g>
</svg>