<?xml version="1.0" encoding="utf-8"?>
<!-- Generator: Adobe Illustrator 22.1.0, SVG Export Plug-In . SVG Version: 6.00 Build 0)  -->
<svg version="1.1" id="图层_1" xmlns="http://www.w3.org/2000/svg" xmlns:xlink="http://www.w3.org/1999/xlink" x="0px" y="0px"
	 viewBox="0 0 472.2 293.5" style="enable-background:new 0 0 472.2 293.5;" xml:space="preserve">
<style type="text/css">
	.st0{fill:none;}
</style>
<g>
	<line class="st0" x1="53.7" y1="0" x2="12.7" y2="100"/>
	<path d="M30.7,101.5H3.6c-2.6,0-4.3-2.6-3.3-5l38.5-94c0.7-1.8,2.8-2.7,4.6-2l24.4,1.7c1.9,0.7,2.8,2.8,2.1,4.7L34.1,99.2
		C33.6,100.6,32.2,101.5,30.7,101.5z"/>
</g>
<g>
	<path d="M30.3,264"/>
	<path d="M9.8,288.3l-7.6,5.2L112.4,3.3l6,2.2c13.7,5,18.6,20,13.4,33.4l-69.5,187C47.2,256.5,30.2,273.5,9.8,288.3z"/>
</g>
<g>
	<line class="st0" x1="224.3" y1="2.3" x2="163.7" y2="146.4"/>
	<path d="M170.8,147.7l-15-6.1c-1-0.9-4.3-4.3-3.2-7.2l57-128.8c0.9-2.5,3.7-3.7,6.1-2.8l20.8,1l-59.2,142.1
		c-0.7,1.9-2.4,2.6-2.4,2.6S171.7,148.1,170.8,147.7z"/>
</g>
<g>
	<line class="st0" x1="172.4" y1="135.6" x2="263.1" y2="133.9"/>
	<path d="M172.6,146.5l-0.4-19.9c0-1.2,1.1-2.2,2.4-2.2l98.3-1.8c1.8,0,2.2,0.9,1.4,2.3l-5.7,12.3c-1.8,5.1-7.7,9.1-13.9,9.9
		c-0.6,0.1-1.3,0.1-1.9,0.1l-78,1.4C174.9,148.5,172.7,147.7,172.6,146.5z"/>
</g>
<g>
	<g>
		<path d="M269.9,79.8c-17.2,1.2-34.4,1.1-51.6-0.3c-1.1-0.1-1.8-1.2-1.4-2.1c2.9-6.8,5.7-13.6,8.4-20.5c0.2-0.8,1-1.2,1.8-1.1
			c17,1.6,34.1,1.8,51.1,0.7c1.1,0,1.9,1,1.6,2c-2.6,6.8-5.3,13.5-8.3,20.2C271.3,79.3,270.6,79.8,269.9,79.8z"/>
	</g>
</g>
<g>
	<path d="M325.5,116.5"/>
	<path d="M329.3,153.2L378.2,6.6L372,6.5c-1,0-2-0.2-3-0.2c-4.8,0.2-15.9,0-20.3,12.5l-24.5,72.1c-12,40.6-10,44.6-5,55.6
		C320.1,148.5,326.2,152.5,329.3,153.2z"/>
</g>
<g>
	<path d="M371.4,101.5l-14.9,6.2l34.3-99.5l81.4,0.3L464.8,21c-4,6.8-11,10.9-18.7,10.9l-39.7-0.2l-17.1,50.3
		C386.3,91,379.8,98.1,371.4,101.5z"/>
</g>
</svg>
